# xmcd CD database file
#
# Track frame offsets:
#	150
#	24639
#	40113
#	61252
#	77015
#	92115
#	109719
#	126618
#	145446
#	168927
#	180700
#	191040
#	207065
#
# Disc length: 3024 seconds
#
# Revision: 0
# Processed by: cddbd v1.5.2PL0 Copyright (c) Steve Scherf et al.
# Submitted via: CDex 2.19
#
DISCID=b50bce0d
DTITLE=Sons of Anarchy - Compilation - Songs of Anarchy: Volume 2
DYEAR=2012
DGENRE=Compilation
TTITLE0=Sympathy For The Devil [from Sons of Anarchy]
TTITLE1=The Lost Boy [from Sons of Anarchy]
TTITLE2=The Passenger [from Sons of Anarchy]
TTITLE3=He Got Away [from Sons of Anarchy]
TTITLE4=To Sir With Love [from Sons of Anarchy]
TTITLE5=Higher Ground [from Sons of Anarchy]
TTITLE6=Lights [from Sons of Anarchy]
TTITLE7=The Unclouded Day [from Sons of Anarchy]
TTITLE8=Coal War [from Sons of Anarchy]
TTITLE9=Time [from Sons of Anarchy]
TTITLE10=Travelin' Band [from Sons of Anarchy]
TTITLE11=Family [from Sons of Anarchy]
TTITLE12=No Milk Today [from Sons of Anarchy]
EXTD=YEAR: 2012
EXTT0=
EXTT1=
EXTT2=
EXTT3=
EXTT4=
EXTT5=
EXTT6=
EXTT7=
EXTT8=
EXTT9=
EXTT10=
EXTT11=
EXTT12=
PLAYORDER=
